<svg><defs><font id="iconfont-archer" horiz-adv-x="1024"><font-face font-family="iconfont-archer" font-weight="500" units-per-em="1024" ascent="896" descent="-128"/><glyph glyph-name="twitter" unicode="" d="M672.279 674.12c71.116 1.255 108.962-24.658 145.115-57.616 30.664 2.648 70.53 19.796 94.026 31.701 7.619 4.178 15.224 8.355 22.842 12.506-13.42-36.263-31.62-64.633-59.553-86.178-6.21-4.778-12.37-11.222-20.165-14.28v-.437c39.825.41 72.701 18.377 103.912 28.125v-.464c-16.41-26.05-38.583-52.482-62.256-71.431l-28.671-22.773c.519-42.16-.601-82.409-8.508-117.851C813.176 169.373 691.706 29.485 499.42-30.451c-69.042-21.516-180.627-30.335-259.731-10.704-39.239 9.75-74.68 20.726-107.94 35.253C113.29 2.181 96.17 10.945 79.814 20.912a12822.6 12822.6 0 0 1-16.11 9.804c17.83-.52 38.706-5.436 58.652-2.212 18.049 2.921 35.743 2.129 52.385 5.787 41.547 9.121 78.41 21.162 110.165 39.758 15.401 8.983 38.775 19.578 49.724 32.576-20.63-.356-39.32 4.423-54.639 9.831-59.39 20.97-93.959 59.525-116.432 117.414 17.995-1.94 69.822-6.634 81.945 3.576-22.664 1.256-44.426 14.364-60.018 24.111-47.758 29.9-86.722 80.034-86.422 157.145a4639.69 4639.69 0 0 0 18.814-8.902c12-5.079 24.192-7.782 38.501-10.703 6.062-1.257 18.145-4.834 25.094-2.24h-.9c-9.23 10.73-24.302 17.913-33.587 29.436-30.65 38.118-59.363 96.744-41.19 166.565 4.6 17.694 11.904 33.34 19.701 47.758.287-.137.6-.3.887-.437 3.564-7.481 11.523-12.943 16.561-19.196 15.674-19.414 34.98-36.863 54.639-52.235 67.035-52.428 127.408-84.648 224.37-108.486 24.577-6.06 53.028-10.703 82.396-10.73-8.247 24.029-5.61 62.912.887 86.176 16.356 58.488 51.826 100.622 103.912 123.23 12.438 5.38 26.254 9.34 40.74 12.48l22.39 2.701" horiz-adv-x="1024"/><glyph glyph-name="weibo" unicode="" d="M730.478 320.29S859.583 549.406 486.18 429.148c46.81 36.677 39.248 111.41 2.514 137.953C351.99 665.845 17.893 350.671 17.893 163.336c0-113.905 122.752-262.011 402.478-262.011 351.907 0 461.994 192.401 461.994 286.04 0 129.144-151.887 132.925-151.887 132.925zM431.945-49.39c-163.92-15.276-305.193 62.471-315.5 173.69-10.423 111.18 114.058 213.704 278.017 228.962 163.92 15.258 305.193-62.47 315.538-173.67C720.345 68.394 595.903-34.131 431.945-49.388zM374.06 273.02c-88.763-15.028-150.274-88.88-137.377-164.861C249.54 32.139 331.895-17.32 420.659-2.311c88.724 15.027 150.236 88.82 137.377 164.86-12.897 76.02-95.212 125.46-183.976 110.47zM358.631 56.168c-28.673-7.87-57.808 7.024-65.08 33.279-7.197 26.331 10.19 54.025 38.826 61.932 28.673 7.907 57.808-6.986 65.041-33.279 7.235-26.293-10.115-53.987-38.787-61.932zm74.465 84.406c-14.74 0-26.696 11.918-26.696 26.658 0 14.72 11.956 26.677 26.696 26.677 14.74 0 26.657-11.976 26.657-26.677.001-14.74-11.917-26.658-26.657-26.658zm517.593 463.779c-58.92 75.328-153.345 107.993-265.81 91.968-18.962-2.687-32.167-20.248-29.46-39.228 2.667-18.923 20.17-32.07 39.21-29.421 111.371 15.89 171.04-27.138 201.478-66.06 39.957-51.147 51.243-124.039 28.04-181.327-7.197-17.753 1.343-37.982 19.115-45.16 4.28-1.727 8.655-2.552 13.013-2.552 13.684 0 26.657 8.176 32.127 21.649 32.242 79.55 17.099 180.06-37.713 250.13zm-232.475-33.875c-18.886-2.705-32.09-20.266-29.384-39.21 2.706-18.942 20.172-32.089 39.21-29.42 31.859 4.567 56.675-3.091 71.568-22.13 13.415-17.197 17.388-42.433 9.75-61.415-7.197-17.752 1.382-37.961 19.115-45.16 4.317-1.726 8.655-2.533 13.012-2.533 13.685 0 26.696 8.176 32.128 21.65 17.1 42.145 9.48 93.235-19.385 130.16-17.714 22.686-58.957 59.075-136.014 48.058z" horiz-adv-x="1024"/><glyph glyph-name="link3" unicode="" d="m953.396 737.358-4.028 4.042c-94.148 94.133-248.194 94.133-342.326 0L388.936 523.264c-94.134-94.132-94.134-248.176 0-342.31l4.026-4.026c7.832-7.848 16.146-14.924 24.736-21.458l79.848 79.85c-9.302 5.494-18.126 12.072-26.116 20.06l-4.042 4.042c-51.114 51.098-51.114 134.272 0 185.39l218.128 218.112c51.116 51.118 134.274 51.118 185.386 0l4.042-4.024c51.1-51.116 51.1-134.292 0-185.39l-98.686-98.686c17.132-42.308 25.248-87.4 24.538-132.386L953.4 395.042c94.134 94.136 94.134 248.178-.004 342.316zM631.042 423.066c-7.832 7.832-16.146 14.922-24.736 21.44l-79.848-79.832c9.304-5.496 18.126-12.074 26.116-20.062l4.042-4.04c51.116-51.116 51.116-134.272 0-185.388L338.486-62.95c-51.118-51.102-134.276-51.102-185.388 0l-4.042 4.042c-51.098 51.12-51.098 134.276 0 185.388l98.688 98.686c-17.134 42.306-25.246 87.402-24.538 132.386L70.604 204.954c-94.136-94.132-94.136-248.178 0-342.324l4.026-4.032c94.152-94.128 248.192-94.128 342.328 0l218.11 218.118c94.134 94.132 94.134 248.194 0 342.326l-4.026 4.024z" horiz-adv-x="1024"/><glyph glyph-name="date" unicode="" d="M191.059 596.594c0-27.61 22.383-49.993 49.993-49.993 27.61 0 49.992 22.383 49.992 49.993v99.233c0 27.61-22.383 49.993-49.992 49.993-27.61 0-49.993-22.383-49.993-49.993v-99.233zm541.831 0c0-27.61 22.382-49.993 49.993-49.993 27.609 0 49.993 22.383 49.993 49.993v99.233c0 27.61-22.383 49.993-49.993 49.993-27.61 0-49.993-22.383-49.993-49.993v-99.233zm229.364 20.61v-740.176c0-16.02-12.987-29.008-29.007-29.008H90.752c-16.02 0-29.007 12.987-29.007 29.008v740.175c0 16.021 12.987 29.008 29.007 29.008h79.84v-49.617c0-38.85 31.609-70.459 70.46-70.459 38.85 0 70.458 31.608 70.458 70.459v49.617h400.915v-49.617c0-38.85 31.607-70.459 70.459-70.459 38.85 0 70.459 31.608 70.459 70.459v49.617h79.906c16.017 0 29.005-12.987 29.005-29.008zM879.2 446.837H144.8V-72.085h734.4v518.923zM482.279 50.326V2.422H241.05v34.217c26.223 47.904 64.424 90.087 114.625 126.602 50.177 35.34 74.127 66.725 71.856 94.097 0 34.218-20.53 51.326-61.591 51.326-31.945-1.15-53.037-20.53-63.3-58.168l-54.748 23.951c21.654 58.169 63.301 87.253 124.892 87.253 70.705-3.422 108.344-37.077 112.916-100.94 5.692-45.63-23.39-88.964-87.254-130.023-39.938-29.674-68.433-56.46-85.543-80.411h169.375zm44.483 41.06 58.169 13.688c4.543-39.938 25.662-60.469 63.3-61.59 46.753-1.151 69.556 19.94 68.434 63.3-3.422 34.218-26.251 51.885-68.435 53.034h-42.77v49.615h29.084c43.332 0 66.136 18.232 68.434 54.748-1.15 29.646-18.258 45.044-51.325 46.193-33.095-2.3-53.036-21.119-59.88-56.458l-58.17 13.687c15.961 61.59 54.748 92.948 116.338 94.097 72.977-1.149 110.616-34.217 112.916-99.229 0-34.216-18.82-58.757-56.458-73.567 45.604-18.258 68.995-46.78 70.145-85.543C771.972 34.93 730.35-.999 651.652-4.42 580.92-3.271 539.3 28.646 526.762 91.386z" horiz-adv-x="1024"/><glyph glyph-name="github" unicode="" d="M941.714 288q0-143.433-83.712-258.011T641.719-128.585q-15.433-2.853-22.565 3.986t-7.131 17.152V13.129q0 55.442-29.696 81.152 32.585 3.438 58.587 10.277t53.723 22.272 46.299 37.998 30.281 60.014 11.703 86.016q0 69.157-45.129 117.723 21.138 52.005-4.571 116.553-16.018 5.157-46.299-6.29t-52.553-25.161l-21.723-13.714q-53.138 14.848-109.714 14.848t-109.714-14.848q-9.143 6.29-24.283 15.433t-47.726 22.016-49.152 7.717q-25.161-64.585-3.986-116.553-45.129-48.567-45.129-117.723 0-48.567 11.703-85.723t29.989-60.014 46.007-38.29 53.723-22.272 58.587-10.277Q400.093 73.73 394.936 35.44q-11.995-5.705-25.71-8.558t-32.585-2.853-37.413 12.288-31.707 35.73q-10.862 18.286-27.721 29.696t-28.27 13.714l-11.447 1.719q-11.995 0-16.567-2.56t-2.853-6.583 5.157-8.009 7.424-6.839l3.986-2.853q12.581-5.705 24.869-21.723t17.993-29.147l5.705-13.129q7.424-21.723 25.161-35.145t38.29-17.152 39.717-3.986 31.707 2.011l13.129 2.304q0-21.723.293-50.871t.293-30.866q0-10.277-7.424-17.152t-22.857-3.986Q231.535-84.515 147.823 30.064T64.111 288.075q0 119.442 58.843 220.27t159.707 159.707 220.27 58.843 220.27-58.843 159.707-159.707 58.843-220.27z" horiz-adv-x="1024"/><glyph glyph-name="pricetag" unicode="" d="M975.995 896h-384c-26.399 0-63.283-15.278-81.94-33.935l-476.12-476.12c-18.677-18.677-18.677-49.213 0-67.89l412.12-412.12c18.677-18.677 49.213-18.677 67.89 0l476.12 476.12c18.657 18.657 33.935 55.541 33.935 81.94v384c0 26.399-21.606 48.005-48.005 48.005zM736.01 512c-53.022 0-96.01 42.988-96.01 96.01s42.988 96.01 96.01 96.01 96.01-42.987 96.01-96.01S789.033 512 736.01 512z" horiz-adv-x="1024"/><glyph glyph-name="linkedin" unicode="" d="M1008 708.704v-817.392c0-23.872-8.608-44.304-25.776-61.536C965.008-187.44 944.464-196 920.688-196H103.296c-23.792 0-44.352 8.56-61.504 25.776C24.624-152.992 16-132.56 16-108.688v817.392c0 23.792 8.624 44.304 25.792 61.52C58.96 787.424 79.504 796 103.296 796h817.392c23.824 0 44.336-8.608 61.536-25.776 17.168-17.232 25.776-37.728 25.776-61.52zM345.36 533.12c0 18.512-6.112 33.872-18.384 46.128-12.224 12.24-28.256 18.352-48.096 18.352-19.824 0-36.064-6.128-48.544-18.352-12.592-12.256-18.88-27.616-18.88-46.128s6.08-33.872 18.336-46.128c12.272-12.256 27.952-18.336 47.152-18.336 21.088 0 38 6.096 50.576 18.336 12.528 12.224 18.512 27.616 17.84 46.128zM214.368 2.384h127.024v415.664H214.368V2.384zm464.304 0h127.92v245.024c0 58.864-13.536 103.52-40.592 133.92-27.088 30.4-62.544 45.632-106.224 45.632-31.04 0-57.36-6.944-78.848-20.832s-37.568-29.44-48.08-46.64h-2.016l-5.92 58.544H414.8c1.936-75.424 2.96-119.712 2.96-132.944V2.384h126.96v239.088c0 13.84 1.344 24.816 3.968 32.752 13.248 32.384 35.04 48.592 65.456 48.592 43.008 0 64.528-30.112 64.528-90.272V2.384z" horiz-adv-x="1024"/><glyph glyph-name="box-empty" unicode="" d="M490.644 238.488a7.228 7.228 0 0 1-8.073-2.463l-52.762-68.924c-3.083-4.02-7.961-6.419-13.047-6.419-2.86 0-5.672.74-8.144 2.162L166.88 300.8a7.237 7.237 0 0 1-7.231-.032 7.212 7.212 0 0 1-3.607-6.262V186.903a7.247 7.247 0 0 1 3.615-6.278L484.692-7.423a7.226 7.226 0 0 1 3.632-.975 7.32 7.32 0 0 1 3.624.967 7.265 7.265 0 0 1 3.624 6.278v232.776a7.26 7.26 0 0 1-4.927 6.864zm373.694 62.281a7.237 7.237 0 0 1-7.231.032L615.354 162.828a16.359 16.359 0 0 0-8.121-2.145c-5.094 0-9.972 2.391-13.047 6.412l-52.762 68.931a7.24 7.24 0 0 1-8.08 2.463 7.254 7.254 0 0 1-4.919-6.864V-1.152a7.25 7.25 0 0 1 3.624-6.278 7.267 7.267 0 0 1 3.623-.967c1.248 0 2.503.324 3.624.975l325.035 188.048a7.247 7.247 0 0 1 3.615 6.278v107.603a7.224 7.224 0 0 1-3.607 6.263zm95.899 294.238a7.26 7.26 0 0 1-4.06 5.374L628.981 754.719a7.26 7.26 0 0 1-7.898-1.129l-93.517-82.756-12.179 6.46a7.22 7.22 0 0 1-6.794 0l-12.181-6.464-93.499 82.761a7.25 7.25 0 0 1-7.89 1.129L67.82 600.382a7.26 7.26 0 0 1-4.062-5.374 7.27 7.27 0 0 1 2.113-6.389l97.64-94.385-15.382-8.169a7.255 7.255 0 0 1-2.909-2.828l-53.03-93.65a7.254 7.254 0 0 1 2.717-9.865l312.043-178.11a7.238 7.238 0 0 1 9.345 1.882l65.935 86.118a7.29 7.29 0 0 1 1.344 5.895 7.258 7.258 0 0 1-3.6 4.863L170.211 471.042l329.985 175.099.009-215.297-81.009-46.944a7.263 7.263 0 0 1-3.616-6.346 7.26 7.26 0 0 1 3.751-6.269l89.162-49.141a7.208 7.208 0 0 1 7 0l89.169 49.141a7.258 7.258 0 0 1 3.75 6.273 7.237 7.237 0 0 1-3.615 6.34l-81.009 46.944.008 215.302 329.985-175.103-309.762-170.672a7.255 7.255 0 0 1-3.6-4.863 7.257 7.257 0 0 1 1.343-5.895l65.937-86.118a7.248 7.248 0 0 1 9.344-1.881L929.084 379.72a7.238 7.238 0 0 1 2.718 9.865l-53.039 93.654a7.26 7.26 0 0 1-2.907 2.824l-15.36 8.169 97.631 94.385a7.246 7.246 0 0 1 2.114 6.389z" horiz-adv-x="1024"/><glyph glyph-name="share1" unicode="" d="M810.667 32.037c0-23.585-19.695-42.704-42.704-42.704H256.037c-23.585 0-42.704 19.695-42.704 42.704v511.926c0 23.585 19.695 42.704 42.704 42.704h213.296c23.564 0 42.667 19.103 42.667 42.667s-19.103 42.667-42.667 42.667H212.94c-46.057 0-84.941-38.029-84.941-84.941V-11.059C127.999-57.116 166.028-96 212.94-96h598.119C857.116-96 896-57.971 896-11.059v256.393c0 23.564-19.103 42.667-42.667 42.667s-42.667-19.103-42.667-42.667V32.038zM678.14 585.749c-23.347 0-42.273 19.792-42.273 42.667 0 23.564 18.411 42.667 42.273 42.667h171.454c11.606 0 22.12-4.891 29.76-12.621 7.791-7.27 12.513-17.787 12.513-29.652V457.356c0-23.347-19.792-42.273-42.667-42.273-23.564 0-42.667 18.411-42.667 42.273v68.054L432.024 150.901c-16.677-16.677-44.191-16.201-60.366-.026-16.662 16.662-16.244 44.096.026 60.366L746.193 585.75h-68.054z" horiz-adv-x="1024"/><glyph glyph-name="search" unicode="" d="M556.631 652.117c-123.294 0-223.29-100.038-223.29-223.418 0-47.12 14.745-90.66 39.527-126.697l-128.965-96.68 89.437-89.307 96.681 128.876c36.038-24.868 79.579-39.57 126.611-39.57 123.38 0 223.376 99.997 223.376 223.378 0 123.38-99.997 223.418-223.377 223.418zm0-357.49c-73.994 0-134.028 60.078-134.028 134.072 0 74.036 60.034 133.982 134.028 133.982 74.08 0 134.025-59.946 134.025-133.982 0-73.994-59.945-134.071-134.025-134.071zm223.376 536.106H243.903c-98.6 0-178.612-79.97-178.612-178.616V116.015c0-98.731 80.013-178.745 178.612-178.745h536.105c98.773 0 178.701 80.013 178.701 178.745v536.102c0 98.646-79.928 178.616-178.702 178.616zm89.438-670.087c0-73.994-60.119-134.07-134.113-134.07H288.579c-73.994 0-134.028 60.076-134.028 134.07v446.71c0 74.08 60.034 134.07 134.028 134.07h446.753c73.994 0 134.113-59.99 134.113-134.07v-446.71z" horiz-adv-x="1024"/><glyph glyph-name="qqkongjian" unicode="" d="M957.434 483.742c-8.28 23.668-309.126 44.821-309.126 44.821s-111.286 279.42-138.2 279.42c-26.91 0-138.253-279.42-138.253-279.42S72.293 507.521 62.727 483.742C53.16 459.968 286.42 266.227 286.42 266.227S217.544-27.988 233.603-40.878c16.11-12.894 276.45 145.009 276.45 145.009S768.433-59.246 786.562-40.878c13.315 13.506-22.436 178.836-41.795 262.453-.615 2.677-101.049-11.167-212.39-11.891-98.863-.67-209.145 6.031-209.145 6.031l257.43 191.17s-80.01 14.569-140.77 20.037c-86.838 7.815-162.927 7.648-153.472 10.045 15.05 3.798 120.573 13.678 223.688 10.05 94.113-3.351 187.212-20.04 187.212-20.04L439.892 243.844s56.227-8.653 102.894-10.44c88.903-3.404 197.392-.948 197.171 0-3.304 14.008-6.21 32.823-6.21 32.823s231.97 193.85 223.687 217.515zm0 0" horiz-adv-x="1024"/><glyph glyph-name="wechat" unicode="" d="M331.557 632.54q0 23.405-14.263 37.741t-37.742 14.263q-24.576 0-43.447-14.555t-18.87-37.45q0-22.308 18.87-36.864t43.447-14.555q23.406 0 37.742 13.97t14.263 37.45zM756.15 342.82q0 16.019-14.556 28.6T704.146 384q-15.433 0-28.306-12.873t-12.873-28.306q0-16.019 12.873-28.892t28.306-12.873q22.82 0 37.45 12.58t14.555 29.111zM621.275 632.54q0 23.405-13.97 37.741t-37.449 14.263q-24.576 0-43.447-14.555t-18.87-37.45q0-22.308 18.87-36.864t43.447-14.555q23.406 0 37.45 13.97t13.97 37.45zm362.862-289.72q0 16.019-14.848 28.6T932.133 384q-15.434 0-28.307-12.873t-12.873-28.306q0-16.019 12.873-28.892t28.307-12.873q22.308 0 37.156 12.58t14.848 29.111zm-151.99 226.89q-17.701 2.267-40.01 2.267-96.548 0-177.737-44.032t-127.707-119.15T440.1 244.517q0-44.544 13.165-86.821-19.968-1.682-38.839-1.682-14.848 0-28.598.877t-31.452 3.73-25.454 4.024-31.158 5.997-28.6 5.998l-144.603-72.558 41.18 124.563Q0 344.649 0 508.635q0 96.549 55.735 177.738t150.82 127.707 207.726 46.592q100.572 0 190.025-37.742T754.03 718.63 832 569.783zm338.285-320.585q0-66.853-39.131-127.708T1025.317 10.825l31.451-103.424L943.031-30.28Q857.307-51.42 818.469-51.42q-96.549 0-177.738 40.301T513.024 98.304t-46.592 150.82 46.592 150.821 127.707 109.422 177.738 40.302q92.013 0 173.129-40.302t129.975-109.714 48.859-150.602z" horiz-adv-x="1171"/><glyph glyph-name="06tags" unicode="" d="M1002.581 363.03v-.449c0-6.826-3.413-12.65-8.426-16.554L590.123-58.005c-8.128-8.128-21.291-8.128-29.462 0-8.128 8.149-8.128 21.333 0 29.461l399.254 399.253v141.206c0 11.776 9.578 21.333 21.333 21.333 11.797 0 21.333-9.557 21.333-21.333V363.029zM422.528-97.6c-.683-1.024-1.13-2.176-2.027-3.072-4.202-4.181-9.749-6.123-15.253-5.995-5.504-.128-11.05 1.814-15.253 5.995-.896.896-1.323 2.048-2.027 3.072L30.4 259.99c-1.024.682-2.155 1.13-3.072 2.026-4.203 4.203-6.101 9.728-5.995 15.232-.128 5.504 1.792 11.05 5.995 15.253.917.896 2.048 1.323 3.072 2.027l486.315 486.315c3.904 4.992 9.706 8.426 16.533 8.426H619.776c2.837 32.043 15.915 60.16 35.627 78.571l.341-.384c4.16 4.416 9.877 7.147 16.17 7.147 12.63 0 22.87-10.923 22.87-24.384 0-8-3.84-14.742-9.408-19.179-10.219-9.43-17.493-24.299-19.925-41.77H767.915c6.826 0 12.672-3.414 16.533-8.427l124.373-124.374c4.992-3.904 8.427-9.728 8.427-16.554V405.248c0-6.827-3.413-12.65-8.427-16.533L422.528-97.6zm452.053 729.387L759.787 746.58h-89.878c3.755-9.472 9.046-17.536 15.467-23.466.875-.704 1.963-1.131 2.71-1.963l.383.384c22.208-20.757 36.8-53.504 36.8-90.752 0-.896-.213-1.685-.256-2.56 25.536-14.741 42.923-42.027 42.923-73.643 0-47.125-38.208-85.333-85.333-85.333s-85.334 38.208-85.334 85.333c0 45.803 36.16 82.88 81.494 84.95-1.92 18.944-9.408 35.157-20.246 45.184-.874.704-1.962 1.13-2.752 1.962l-.341-.384c-15.872 14.827-27.584 35.947-33.13 60.288h-80.918L72.043 277.248 405.248-55.957l469.333 469.333v218.41zm-216.085-54.955c5.29 4.885 9.621 11.456 13.163 18.837-18.24-4.864-31.744-21.333-31.744-41.066 0-23.552 19.114-42.667 42.666-42.667 23.574 0 42.667 19.115 42.667 42.667 0 10.09-3.627 19.221-9.493 26.538-13.12-32.96-27.67-40.725-27.67-40.725-4.117-4.416-9.834-7.125-16.17-7.125-12.63 0-22.827 10.922-22.827 24.384 0 7.957 3.819 14.698 9.408 19.157zm-396.48-262.997c8.15 8.128 21.333 8.128 29.461 0l150.379-150.379c8.128-8.128 8.128-21.312 0-29.461-8.128-8.128-21.333-8.128-29.461 0L262.016 284.373c-8.128 8.128-8.128 21.312 0 29.462zm85.333 85.333c8.15 8.128 21.334 8.128 29.462 0l150.378-150.379c8.107-8.128 8.107-21.312 0-29.461-8.128-8.128-21.333-8.128-29.461 0L347.349 369.707c-8.128 8.128-8.128 21.312 0 29.461z" horiz-adv-x="1024"/><glyph glyph-name="qrcode" unicode="" d="M329.129 237.69v-73.137h-73.138v73.138h73.138zm0 438.83v-73.138h-73.138v73.138h73.138zm438.829 0v-73.138H694.82v73.138h73.138zM182.853 91.986h219.414v218.843H182.853V91.986zm0 438.258h219.414v219.414H182.853V530.244zm438.829 0h219.414v219.414H621.682V530.244zM475.405 383.967V18.277h-365.69v365.69h365.69zM767.958 91.415V18.276H694.82v73.139h73.138zm146.276 0V18.276h-73.138v73.139h73.138zm0 292.552V164.553H694.82v73.138h-73.138V18.276h-73.139v365.691h219.415V310.83h73.138v73.138h73.138zm-438.829 438.83V457.104h-365.69v365.691h365.69zm438.83 0V457.104H548.542v365.691h365.691z" horiz-adv-x="1024"/><glyph glyph-name="tag1" unicode="" d="M919.411 896H633.48c-52.418 0-125.637-30.315-162.707-67.385L27.81 385.653c-37.07-37.07-37.07-97.732 0-134.801L369.585-90.923c37.07-37.069 97.731-37.069 134.8 0l442.931 442.931c37.101 37.07 67.417 110.289 67.417 162.738v285.933c0 52.417-42.905 95.321-95.322 95.321zM792.76 578.896c-52.544 0-95.131 42.587-95.131 95.131s42.587 95.131 95.13 95.131 95.132-42.587 95.132-95.13-42.587-95.132-95.131-95.132z" horiz-adv-x="1024"/><glyph glyph-name="snssharedoubanon" unicode="" d="M354.488 475.887h315.024V370.87H354.488v105.016Zm26.25-183.774 78.758-131.266h105l78.766 131.266Zm586.925 547.558C930.12 877.22 884.895 896 832.01 896H192.006c-52.885 0-98.11-18.78-135.669-56.33C18.787 802.113.008 756.888.008 704.004V64.006c0-52.885 18.78-98.11 56.33-135.669C93.895-109.22 139.12-128 192.005-128h639.997c52.884 0 98.11 18.78 135.651 56.337 37.559 37.559 56.338 82.784 56.338 135.669v639.997c0 52.884-18.78 98.118-56.33 135.668zM827.036 82.089H196.972v78.758h183.766l-65.69 109.484 16.414 21.782h-55.74v262.532h472.54V292.113h-62.287l22.92-22.674-65.633-108.592h183.774V82.09zm0 525.056H196.972v78.758h630.064v-78.758z" horiz-adv-x="1024"/><glyph glyph-name="closebg" unicode="" d="M512 810.667C276.352 810.667 85.333 619.648 85.333 384 85.333 148.352 276.352-42.667 512-42.667c235.648 0 426.667 191.019 426.667 426.667 0 235.648-191.019 426.667-426.667 426.667Zm211.221-577.515-60.352-60.33-150.848 150.847-150.848-150.848-60.33 60.331L451.69 384 300.843 534.848l60.33 60.352 150.848-150.848L662.87 595.2l60.352-60.352L572.373 384l150.848-150.848Z" horiz-adv-x="1024"/><glyph glyph-name="iconfontzuo" unicode="" d="M480 832C214.912 832 0 617.088 0 352 0 86.912 214.912-128 480-128c265.088 0 480 214.912 480 480 0 265.088-214.912 480-480 480zm0-896C250.624-64 64 122.624 64 352s186.624 416 416 416 416-186.624 416-416S709.376-64 480-64zm62.528 192.384a32.142 32.142 0 0 0-22.656 9.344L328.32 329.344c-.064 0-.064.064-.064.064l-.064.064-.064.064-.064.064-.064.064s.448 0 .448.064c-5.824 6.016-8.448 13.76-8.448 21.504v.064h-.512s-.256 0-.256.064h.384s.384 0 .384.064v.064h-.512s-.256 0-.256.064h-.128s-.064 0-.064.064v.192l.512.064h.512v.064l-.512.064h-.256l.384.064h.384v.064c0 7.808 2.624 15.488 8.448 21.504l-.192.064h-.064v.128l.064.064.064.064.064.064 192.768 192.832c12.48 12.48 32.768 12.48 45.248 0s12.48-32.768 0-45.248l-170.24-169.664 168.896-168.96c12.48-12.48 12.48-32.768 0-45.248-6.272-6.208-14.464-9.344-22.592-9.344z" horiz-adv-x="1024"/><glyph glyph-name="tag2" unicode="" d="m985.6 422.4-256-256-256-256C454.4-115.2 422.4-128 384-128c-38.4 0-70.4 12.8-89.6 38.4l-256 256C12.8 185.6 0 217.6 0 256c0 38.4 12.8 70.4 38.4 89.6l256 256 256 256c19.2 25.6 51.2 38.4 89.6 38.4h256c70.4 0 128-57.6 128-128V512c0-38.4-12.8-70.4-38.4-89.6zM768 768c-70.4 0-128-57.6-128-128s57.6-128 128-128 128 57.6 128 128-57.6 128-128 128z" horiz-adv-x="1024"/><glyph glyph-name="xiangyou1" unicode="" d="M761.056 363.872c.512.993 1.343 1.823 1.792 2.849 8.8 18.304 5.92 40.703-9.664 55.424L399.936 756.256c-19.265 18.209-49.631 17.345-67.872-1.889-18.209-19.264-17.376-49.63 1.889-67.872l316.96-299.839L335.2 82.368c-19.072-18.399-19.648-48.767-1.247-67.872 9.407-9.791 21.984-14.689 34.56-14.689 12 0 24 4.48 33.312 13.44l350.048 337.376c.673.673.927 1.6 1.6 2.303.513.48 1.056.833 1.567 1.344 2.72 2.85 4.16 6.339 6.016 9.602z" horiz-adv-x="1024"/><glyph glyph-name="xiangzuo1" unicode="" d="M671.968-16c-12.287 0-24.576 4.672-33.951 14.048L286.048 350.016c-18.751 18.719-18.751 49.12 0 67.872l351.969 352c18.751 18.753 49.12 18.753 67.872 0 18.752-18.718 18.752-49.12 0-67.871L387.872 383.969 705.89 65.952c18.752-18.751 18.752-49.12 0-67.872-9.344-9.408-21.633-14.08-33.92-14.08z" horiz-adv-x="1024"/><glyph glyph-name="emptybox" unicode="" d="M957.12 598.976c0 .128 0 .192.064.256.512.896.896 1.792 1.216 2.752.256.512.448.96.64 1.344.256.768.256 1.408.448 2.112.192.832.384 1.536.448 2.24.064.448 0 .832 0 1.216.064 1.152.128 2.176 0 3.264-.064.512-.192 1.024-.32 1.536-.128.896-.256 1.856-.512 2.816-.128.448-.384.832-.512 1.28a23.401 23.401 0 0 1-1.152 2.944c0 .064-.064.128-.064.192-.256.448-.512.832-.832 1.28-.512.768-.96 1.6-1.536 2.304-.512.64-1.088 1.216-1.6 1.728s-.96 1.024-1.472 1.472c-.768.64-1.6 1.216-2.496 1.728-.384.192-.64.512-1.024.704l-.384.192s-.064 0-.128.064L676.16 783.104c-.128.064-.256.128-.448.256-.704.32-1.344.576-2.048.896s-1.472.64-2.24.896c-.448.128-.896.192-1.344.256a16.82 16.82 0 0 1-3.008.64h-1.024c-1.152.064-2.24.064-3.392-.064-.448-.064-.896-.192-1.28-.256a18.787 18.787 0 0 1-3.072-.64c-.512-.192-.96-.384-1.408-.576-.96-.384-1.792-.704-2.752-1.216l-.384-.192L512 703.808l-141.76 79.296-.384.192c-.896.512-1.856.768-2.752 1.152-.448.192-.896.384-1.408.576-1.088.32-2.112.512-3.2.64-.32.064-.704.192-1.088.256a22.476 22.476 0 0 1-3.584.064h-.768c-1.152-.128-2.24-.32-3.328-.64-.384-.128-.704-.128-1.024-.192-.896-.32-1.664-.704-2.56-1.088a6.943 6.943 0 0 1-1.792-.704c-.128-.064-.32-.128-.512-.256L76.032 630.4l-.384-.192c-.448-.256-.768-.576-1.088-.832a15.397 15.397 0 0 1-2.496-1.664l-1.536-1.536c-.512-.576-1.088-1.088-1.536-1.664-.64-.704-1.088-1.6-1.6-2.368-.256-.448-.576-.768-.768-1.152-.064-.064-.064-.192-.064-.256-.512-.896-.832-1.856-1.152-2.752-.192-.512-.448-.96-.576-1.472-.256-.704-.32-1.472-.448-2.304-.128-.704-.32-1.344-.384-2.048v-1.792c0-.896-.064-1.728 0-2.624.064-.576.256-1.216.384-1.792.128-.896.256-1.728.512-2.56.256-.512.448-.896.64-1.408.384-.96.768-1.92 1.216-2.752 0-.064.064-.128.064-.256.128-.128.32-.256.384-.512a23.553 23.553 0 0 1 2.88-3.776c.384-.384.768-.768 1.216-1.152.96-.896 2.048-1.664 3.2-2.496.384-.256.768-.576 1.216-.832.192-.128.32-.128.384-.192l122.048-64.576-106.048-51.2c-.384-.128-.768-.448-1.152-.64-.768-.448-1.472-.832-2.112-1.344-.64-.384-1.152-.896-1.728-1.408s-1.152-.96-1.6-1.536c-.576-.64-1.088-1.344-1.6-1.92-.32-.384-.64-.704-.896-1.088-.128-.064-.192-.32-.32-.512-.384-.704-.768-1.472-1.152-2.112-.32-.704-.64-1.344-.896-1.92-.256-.704-.384-1.344-.64-2.048-.128-.896-.32-1.536-.448-2.304s-.128-1.408-.192-2.048c-.064-.832-.128-1.6-.128-2.24 0-.832.128-1.472.256-2.176.064-.768.192-1.6.32-2.304.128-.64.32-1.216.576-1.92.256-.832.512-1.6.896-2.368.064-.256.128-.384.192-.64.128-.192.32-.384.448-.64.832-1.408 1.664-2.88 2.816-4.16.256-.256.448-.64.768-.896 1.216-1.28 2.496-2.368 3.968-3.456l137.216-91.136c-.384-1.6-.64-3.328-.64-5.056V202.816c0-.384.128-.768.128-1.152.064-1.152.128-2.24.32-3.264.128-.768.384-1.344.64-2.112.192-.768.384-1.344.64-2.112s.64-1.344.96-1.984c.32-.64.64-1.344 1.088-1.984.384-.64.896-1.152 1.344-1.728.512-.512.896-1.152 1.408-1.728.768-.64 1.6-1.344 2.432-1.984.384-.256.64-.64 1.024-.768l.064-.128L499.072 4.096v-.128c.448-.256 1.024-.512 1.536-.768.512-.384 1.024-.64 1.472-.896.832-.384 1.664-.768 2.56-1.024.384-.128.832-.256 1.28-.384.32-.128.64-.256.96-.256 1.664-.384 3.328-.64 5.056-.64v-.128C512 0 512 .128 512 .128c1.728 0 3.392.256 4.992.64.384 0 .64.128 1.024.256.448.128.896.256 1.28.384.896.256 1.728.64 2.496 1.024.512.256 1.024.512 1.472.768.512.384 1.088.64 1.472.896.064 0 .128 0 .128.128L787.84 184.128c.448.256.768.64 1.152.896.768.64 1.6 1.28 2.24 1.856.576.64 1.024 1.28 1.472 1.728.384.64.896 1.152 1.344 1.728.384.64.704 1.344 1.024 1.984.384.64.768 1.28 1.024 1.984.32.768.512 1.344.704 2.112s.448 1.344.576 2.112c.256 1.152.32 2.24.384 3.392 0 .256.128.64.128 1.024v135.488c0 1.728-.256 3.456-.64 4.992l137.28 91.2a33.606 33.606 0 0 1 3.968 3.392c.256.32.448.704.704.96 1.152 1.28 2.048 2.688 2.88 4.16.128.192.256.384.384.64.128.192.128.384.256.576.384.832.64 1.6.896 2.432.256.704.384 1.28.64 1.856.128.768.256 1.472.256 2.304.128.704.256 1.344.256 2.112s0 1.472-.064 2.24-.064 1.344-.192 2.112c-.128.704-.384 1.408-.512 2.112-.256.768-.384 1.472-.704 2.176-.256.64-.576 1.216-.832 1.792a16.223 16.223 0 0 1-1.28 2.304c-.128.128-.128.384-.256.512-.256.384-.64.704-.896 1.024a24.078 24.078 0 0 1-1.6 1.984 11.48 11.48 0 0 1-1.6 1.472 11.884 11.884 0 0 1-1.728 1.408c-.704.576-1.472 1.024-2.24 1.408-.384.192-.768.576-1.152.704l-105.984 51.2 121.984 64.512c.128.128.256.128.384.256l1.152.768c1.28.832 2.368 1.6 3.392 2.624.384.32.768.704 1.152 1.088 1.152 1.216 2.112 2.496 2.88 3.904.192.064.32.192.448.32zM664.832 310.4l-108.096 70.528 218.88 117.952 100.096-48.32-210.88-140.16zm-305.664 0L148.224 450.56l100.096 48.32L467.2 380.928 359.168 310.4zm-.128 426.496 106.688-59.776-217.344-126.4-113.728 60.096 224.384 126.08zM512 408.768 295.808 525.312 512 650.944l216.256-125.632L512 408.768zm46.208 268.416 106.688 59.776 224.448-126.08-113.664-60.096-217.472 126.4zm-211.84-413.312c.256-.128.576-.256.896-.384 1.28-.768 2.56-1.344 3.968-1.856a27.435 27.435 0 0 1 1.856-.768 21.438 21.438 0 0 1 5.696-.768c.064 0 .128-.128.256-.128.064 0 .128.128.256.128 1.92 0 3.84.256 5.696.768.64.256 1.216.512 1.792.768 1.344.384 2.688 1.024 3.968 1.728.256.128.576.256.832.384l117.568 76.736V66.368l-217.28 148.48v98.496l74.496-49.472zm405.76-49.024-217.28-148.48V340.48l117.568-76.736c.32-.128.576-.256.832-.384 1.28-.768 2.624-1.344 3.968-1.856.64-.128 1.152-.384 1.728-.64a21.912 21.912 0 0 1 5.76-.768c.064 0 .128-.128.256-.128 0 0 .064.128.128.128 1.984 0 3.968.256 5.888.896.64.128 1.216.384 1.728.64a25.1 25.1 0 0 1 3.968 1.856c.32.256.64.256.896.384l74.56 49.472v-98.496z" horiz-adv-x="1024"/><glyph glyph-name="link" unicode="" d="M307.84-39.744 89.92 181.504l241.728 241.664c-16.448 16.448-38.464 25.6-62.016 25.6-26.496.384-47.616-9.6-65.152-27.2L27.264 244.224C9.664 226.752 0 203.712 0 179.264c0-23.552 9.024-45.696 25.536-62.144L245.12-102.528C261.568-118.912 283.584-128 307.136-128c24.448 0 47.616 9.6 65.024 27.136L549.504 76.48c35.52 35.456 36.224 92.48 1.6 127.04L307.84-39.744zM998.464 650.88 778.88 870.528C762.368 886.912 740.352 896 716.8 896h-.064c-24.448 0-47.552-9.664-65.024-27.136L474.432 691.52c-35.52-35.456-36.288-92.544-1.664-127.104l243.328 243.328 217.92-221.248-241.664-241.728c16.384-16.448 38.464-25.536 62.016-25.536h.064c24.448 0 47.552 9.6 65.088 27.2l177.28 177.28c17.536 17.536 27.2 40.576 27.2 65.088 0 23.488-9.088 45.632-25.536 62.08zm-669.568-387.2 62.72-62.784L679.36 488.64l-62.72 62.784L328.896 263.68z" horiz-adv-x="1024"/><glyph glyph-name="sina" unicode="" d="M960.992 155.232c0-19.712-5.536-37.952-14.432-54.048L662.72 418.752l280.768 245.632c10.912-17.344 17.504-37.696 17.504-59.68V155.232zM511.488 361.12l390.688 341.824c-16.032 8.768-34.08 14.144-53.568 14.144h-674.24c-19.52 0-37.568-5.376-53.536-14.144L511.488 361.12zm108.928 20.672-90.432-79.168c-5.28-4.608-11.872-6.912-18.496-6.912s-13.216 2.304-18.496 6.912l-90.464 79.168L115.104 60.16c17.216-10.816 37.408-17.28 59.264-17.28h674.24c21.824 0 42.048 6.464 59.264 17.28L620.416 381.792zM79.488 664.416c-10.912-17.312-17.472-37.696-17.472-59.68V155.264c0-19.712 5.504-37.952 14.432-54.048l283.808 317.632L79.488 664.416zm0 0z" horiz-adv-x="1024"/><glyph glyph-name="zhihu" unicode="" d="M510.163 865.02c268.172 0 485.569-217.397 485.569-485.569S778.335-106.118 510.163-106.118 24.594 111.279 24.594 379.451 241.991 865.02 510.163 865.02zm255.564-685.037v408.062H536.408V179.983h40.982l14.892-51.217 72.093 51.217h101.353zm-364.623 177.16h111.504s0 43.626-21.808 46.048c-21.83 2.421-89.698 0-89.698 0v135.733h100.583s-1.199 44.837-20.609 44.837H317.48l25.44 73.933s-41.194-2.434-55.735-27.873c-14.554-25.451-61.801-156.342-61.801-156.342s15.741-7.265 42.415 12.121c26.662 19.386 35.138 53.324 35.138 53.324l48.469 2.421 1.222-138.156s-83.62 1.211-100.583 0c-16.976-1.211-26.662-46.048-26.662-46.048h127.246s-10.909-76.354-43.638-132.1c-32.705-55.746-94.529-99.373-94.529-99.373s44.849-18.175 88.475 7.277c43.638 25.44 75.807 137.375 75.807 137.375l102.33-125.267s9.349 59.612-1.642 76.46c-11.003 16.835-70.8 84.539-70.8 84.539l-26.127-23.029 18.593 74.119zm318.004 185.485V226.336h-47.644l-60.753-45.804-13.249 45.804h-12.505v316.292z" horiz-adv-x="1024"/><glyph glyph-name="wenjianjiafolder172" unicode="" d="M341.187 896H97.67c-27.014 0-48.908-21.65-48.908-48.762V652.19h48.762v195.048h243.81v-97.524h633.904V652.19H1024v97.573c0 26.917-21.797 48.713-48.664 48.713h-585.24v48.762c0 26.917-21.358 48.762-48.909 48.762zM0 554.277V-78.897C0-106.008 21.406-128 48.908-128h974.994c26.966 0 48.86 21.894 48.86 49.152v633.125c0 27.16-21.407 49.152-48.86 49.152H48.908C21.894 603.429 0 581.534 0 554.277zm48.762.39H1024V-79.238H48.762v633.905z" horiz-adv-x="1073"/><glyph glyph-name="facebook" unicode="" d="M147.968 793.6h728.576c25.088 0 45.056-19.968 45.056-45.056V19.456c0-24.576-19.968-45.056-45.056-45.056H667.648v317.44h106.496l15.872 123.392H667.648v78.848c0 35.84 10.24 60.416 61.44 60.416h65.536v110.592c-11.264 1.536-50.176 4.608-95.232 4.608-94.72 0-159.232-57.344-159.232-163.328v-91.136H433.152V291.84H540.16V-25.6H147.968C122.88-25.6 102.4-5.12 102.4 19.456v729.088c0 25.088 20.48 45.056 45.568 45.056z" horiz-adv-x="1024"/><glyph glyph-name="folder" unicode="" d="M897.455 512c.003-.248.004-.497.004-.746V127.676c0-34.743-28.779-63.677-64.28-63.677H192.28c-35.056 0-64.28 28.805-64.28 64.337v383.663h769.455zM128 576v64.105C128 675.284 156.674 704 192.045 704h377.593c35.409 0 74.883-26.443 88.253-59.063l28.255-68.938H127.999z" horiz-adv-x="1024"/><glyph glyph-name="sousuosearch79" unicode="" d="M1000.944 6.557 815.921 191.516c50.723 72.69 80.695 160.878 80.695 256.176C896.616 695.286 695.902 896 448.308 896S0 695.286 0 447.692 200.714-.616 448.308-.616c95.298 0 183.486 29.972 256.176 80.695l184.96-184.96c30.805-30.804 80.695-30.804 111.5 0 30.741 30.742 30.741 80.632 0 111.438zM448.308 127.472c-176.825 0-320.22 143.394-320.22 320.22 0 176.825 143.395 320.22 320.22 320.22s320.22-143.395 320.22-320.22c0-176.826-143.394-320.22-320.22-320.22z" horiz-adv-x="1024"/><glyph glyph-name="stackoverflow" unicode="" d="M812.88-36.576H174.032v274.272H82.608v-365.728h821.728v365.728h-91.424V-36.576zM274.576 262.848l18.848 89.728 447.424-94.272L722 169.152zm58.88 213.728L371.728 560 786 366.272l-38.272-82.848zM448.304 680l58.272 70.272L857.424 457.12l-58.272-70.272zm226.848 216 272.576-366.272-73.152-54.848L602 841.152zM264.88 55.424v90.848h457.152V55.424H264.88z" horiz-adv-x="1024"/><glyph glyph-name="xiayiye" unicode="" d="M448 601.6c-12.8 12.8-32 12.8-44.8 0s-12.8-32 0-44.8L576 384 403.2 211.2c-12.8-12.8-12.8-32 0-44.8s32-12.8 44.8 0l192 198.4c12.8 12.8 12.8 32 0 44.8l-192 192zm38.4 217.6c-236.8 0-435.2-192-435.2-435.2S249.6-51.2 486.4-51.2 921.6 147.2 921.6 384c6.4 243.2-192 435.2-435.2 435.2zm0-806.4c-204.8 0-371.2 166.4-371.2 371.2s166.4 371.2 371.2 371.2S857.6 588.8 857.6 384c6.4-204.8-160-371.2-371.2-371.2z" horiz-adv-x="1024"/><glyph glyph-name="fangwenliang" unicode="" d="M213.634 559.309H102.372c-20.222 0-37.081-18.537-37.081-38.766V-29h185.43v549.542c-.002 21.914-16.866 38.766-37.087 38.766zm235.998 237.69H338.369c-20.221 0-37.08-18.543-37.08-40.457v-785.54h185.43v785.54c0 21.913-16.859 40.457-37.087 40.457zM685.63 358.713H574.375c-20.23 0-37.088-18.537-37.088-40.452V-29h185.43v347.26c0 21.915-16.858 40.452-37.086 40.452zM921.628 559.31H810.373c-20.23 0-37.081-18.537-37.081-38.766V-29h185.417v549.542c0 21.914-16.852 38.766-37.08 38.766z" horiz-adv-x="1024"/><glyph glyph-name="sousuo2" unicode="" d="M970.937 887.533H64.353c-27.66 0-50.24-22.58-50.24-50.24V-69.293c0-27.66 22.58-50.24 50.24-50.24h906.584c27.66 0 50.24 22.58 50.24 50.24v906.584c0 27.66-22.58 50.24-50.24 50.24zM856.908 80.864l-42.337-44.03c-3.387-3.387-9.596-3.387-13.548.564L619.82 211.264c-108.948-72.82-257.976-63.224-356.198 31.047-113.464 108.948-117.416 289.588-7.903 403.052 108.948 113.464 289.587 117.415 403.052 7.903 109.512-104.997 116.85-276.04 20.322-389.504L855.779 93.848c3.952-3.387 4.516-9.032 1.13-12.984zM305.958 597.38c-82.417-85.803-80.159-221.847 6.21-304.264 85.803-82.417 221.847-79.595 304.264 6.21s79.594 222.412-6.21 304.264c-85.239 82.417-221.847 79.594-304.264-6.21z" horiz-adv-x="1024"/><glyph glyph-name="share2" unicode="" d="M86.371 575.175h53.26V-.975h-53.26v576.15zm0-523.902h851.26V-.973H86.371v52.246zm798.817 523.902h52.443V33.541h-52.443v541.634zm-397.3 212.529h50.787V245.455h-50.787v542.249zm24.776 62.304 35.042-34.854L321.642 587.87l-35.043 34.855 226.065 227.282zM739.4 622.725l-35.042-34.854-226.065 227.282 35.043 34.855L739.4 622.725z" horiz-adv-x="1024"/><glyph glyph-name="qq" unicode="" d="M909.938 231.196c-18.432 110.877-95.83 183.524-95.83 183.524 11.065 100.665-29.496 118.528-29.496 118.528C776.107 844.686 517.432 839.225 512 839.083c-5.433.142-264.135 5.603-272.612-305.863 0 0-40.561-17.864-29.496-118.528 0 0-77.398-72.648-95.83-183.524 0 0-9.842-187.335 88.462-22.955 0 0 22.13-62.435 62.664-118.528 0 0-72.505-25.486-66.333-91.761 0 0-2.475-73.9 154.823-68.836 0 0 110.564 8.903 143.758 57.344h29.241c33.167-48.44 143.759-57.344 143.759-57.344C827.676-76.004 825.23-2.076 825.23-2.076c6.116 66.247-66.332 91.761-66.332 91.761 40.533 56.093 62.663 118.528 62.663 118.528 98.19-164.38 88.377 22.983 88.377 22.983zm0 0" horiz-adv-x="1024"/><glyph glyph-name="icons-" unicode="" d="M485.01 224.19c-115.064 0-208.661 93.597-208.661 208.662 0 115.043 93.597 208.64 208.661 208.64 115.065 0 208.662-93.597 208.662-208.64 0-115.065-93.596-208.662-208.662-208.662zm0 373.727c-91.022 0-165.087-74.043-165.087-165.065s74.065-165.087 165.087-165.087 165.087 74.065 165.087 165.087-74.064 165.065-165.087 165.065zm281.215-474.94-165.32 161.15 30.427 31.192 165.32-161.15zM151.603 483.554h-87.15v348.003h347.983v-87.15H151.603zM412.436-63.557H64.453v347.982h87.15V23.593h260.833zm547.11 0H611.608v87.15h260.788v260.832h87.15zm0 547.133h-87.15v260.831H611.587v87.15h347.959z" horiz-adv-x="1024"/><glyph glyph-name="link1" unicode="" d="m953.405 821.358-4.028 4.042c-94.148 94.134-248.194 94.134-342.326 0L388.945 607.264c-94.134-94.132-94.134-248.176 0-342.31l4.026-4.026c7.832-7.848 16.146-14.924 24.736-21.458l79.848 79.85c-9.302 5.494-18.126 12.072-26.116 20.06l-4.042 4.042c-51.114 51.098-51.114 134.272 0 185.39l218.128 218.112c51.116 51.118 134.274 51.118 185.386 0l4.042-4.024c51.1-51.116 51.1-134.292 0-185.39l-98.686-98.686c17.132-42.308 25.248-87.4 24.538-132.386l152.604 152.604c94.134 94.136 94.134 248.178-.004 342.316zM631.051 507.066c-7.832 7.832-16.146 14.922-24.736 21.44l-79.848-79.832c9.304-5.496 18.126-12.074 26.116-20.062l4.042-4.04c51.116-51.116 51.116-134.272 0-185.388L338.495 21.05c-51.118-51.102-134.276-51.102-185.388 0l-4.042 4.042c-51.098 51.12-51.098 134.276 0 185.388l98.688 98.686c-17.134 42.306-25.246 87.402-24.538 132.386L70.613 288.954c-94.136-94.132-94.136-248.178 0-342.324l4.026-4.032c94.152-94.128 248.192-94.128 342.328 0l218.11 218.118c94.134 94.132 94.134 248.194 0 342.326l-4.026 4.024z" horiz-adv-x="1024"/><glyph glyph-name="tagso" unicode="" d="M280 616.992q-34.016 0-58.496-24t-24.512-58.496 24.512-59.008T280 450.976t58.496 24.512 24.512 59.008-24.512 58.496-58.496 24zm0-103.008q-8 0-14.016 6.016t-6.016 14.016 6.016 14.016T280 554.048t14.016-6.016 6.016-14.016T294.016 520 280 513.984zM910.016 352l-360 362.016q-12 12.992-30.016 12.992H157.984q-26.016 0-44-18.016t-18.016-43.008v-224q0-16.992 12-30.016L466.976 57.952q18.016-18.016 43.488-18.016t44.512 18.016l28 28 28-28q19.008-18.016 44-18.016t44 18.016l210.016 208q18.016 16.992 18.016 42.496t-16.992 43.488zm-145.024-86.016q18.016 16.992 18.016 42.496t-18.016 43.488L456 663.968h56L863.008 308.96l-208-204.992L628 129.984zM159.008 451.008V664H368l351.008-355.008-140-138.016-36.992-36-31.008-31.008z" horiz-adv-x="1024"/><glyph glyph-name="guidang" unicode="" d="m125.9 536.6-37.8-45.4 37.8 60.5 362.9-226.9c16.1-9.4 44.3-9.4 60.5 0l362.9 226.9 37.8-60.5-37.8 45.4L950 582l-37.8-60.5-362.9 226.8c-16.1 9.5-44.3 9.4-60.5 0L125.9 521.5 88.1 582l37.8-45.4zm-37.8-45.4c-30.6 26.3-30.6 64.4 0 90.7L451 816.4c38.7 20.3 97.3 20.4 136.1 0l363-234.4c30.6-26.3 30.6-64.4 0-90.7l-363-234.5c-38.7-20.3-97.3-20.4-136.1 0L88.1 491.2zm-7.6-68c-22.6-28.6-20.2-63.3 7.6-90.7L451 98c38.8-20.2 97.3-20.2 136.1 0L950 332.4c27.8 27.5 30.1 62.1 7.6 90.7-3-2.6-5.3-5.1-7.6-7.6L587.1 181.2c-38.8-20.3-97.3-20.3-136.1 0L88.1 415.6c-2.3 2.5-4.6 5-7.6 7.6zm0-158.8c-22.6-28.6-20.2-63.3 7.6-90.7L451-60.8c38.8-20.2 97.3-20.2 136.1 0L950 173.6c27.8 27.5 30.1 62.1 7.6 90.7-3-2.6-5.3-5.1-7.6-7.5L587.1 22.4c-38.8-20.2-97.3-20.3-136.1 0L88.1 256.8c-2.3 2.5-4.6 5-7.6 7.6z" horiz-adv-x="1024"/><glyph glyph-name="tag" unicode="" d="m957.875 491.069-11.859 270.539c-1.52 34.69-29.714 62.242-64.429 62.956l-270.744 5.603a65.843 65.843 0 0 1-48.463-19.814L87.562 324.431c-25.314-25.902-24.828-67.81 1.074-93.124L371.238-44.84c25.905-25.31 67.812-24.828 93.125 1.079l474.82 485.921a65.851 65.851 0 0 1 18.692 48.909zM827.794 616.347c-10.11-42.928-53.107-69.538-96.04-59.427s-69.537 53.112-59.427 96.04c10.111 42.933 53.107 69.538 96.04 59.427s69.537-53.107 59.427-96.04z" horiz-adv-x="1024"/><glyph glyph-name="account-box" unicode="" d="M256 170.667C256 256 426.667 302.933 512 302.933S768 256 768 170.667V128H256m384 384a128 128 0 0 0-128-128 128 128 0 0 0-128 128 128 128 0 0 0 128 128 128 128 0 0 0 128-128M128 682.667V85.333A85.333 85.333 0 0 1 213.333 0h597.334A85.333 85.333 0 0 1 896 85.333v597.334A85.333 85.333 0 0 1 810.667 768H213.333A85.333 85.333 0 0 1 128 682.667z" horiz-adv-x="1024"/><glyph glyph-name="account" unicode="" d="M512 725.333a170.667 170.667 0 0 0 170.667-170.666A170.667 170.667 0 0 0 512 384a170.667 170.667 0 0 0-170.667 170.667A170.667 170.667 0 0 0 512 725.333m0-426.666c188.587 0 341.333-76.374 341.333-170.667V42.667H170.667V128c0 94.293 152.746 170.667 341.333 170.667z" horiz-adv-x="1024"/><glyph glyph-name="telegram" unicode="" d="m417.28 100.267 11.947 180.48L756.907 576c14.506 13.227-2.987 19.627-22.187 8.107L330.24 328.533 155.307 384c-37.547 10.667-37.974 36.693 8.533 55.467l681.387 262.826c31.146 14.08 61.013-7.68 49.066-55.466L778.24 100.267c-8.107-38.827-31.573-48.214-64-30.294L537.6 200.533l-84.907-82.346c-9.813-9.814-17.92-17.92-35.413-17.92z" horiz-adv-x="1024"/><glyph glyph-name="form_search" unicode="" d="M1002.624 48.384 903.36 149.376c37.12 49.024 49.984 96.384 49.984 162.88 0 160.32-129.28 290.432-288.768 290.432-159.36 0-288.512-130.112-288.512-290.432 0-160.384 130.112-295.872 289.472-295.872 54.72 3.008 85.12 12.736 145.152 45.376l98.88-100.352c23.616-24.64 55.232-32.768 77.248-19.776.064 0 71.808 38.72 15.808 106.752zM543.36 190.144c-31.043 31.078-50.242 73.994-50.242 121.393l.002.758c-.002.267-.003.629-.003.992 0 47.342 19.202 90.199 50.242 121.208 32.385 32.641 75.521 50.561 121.345 50.561 45.888 0 88.896-17.92 121.344-50.56 32.384-32.64 50.368-76.032 50.368-122.112 0-46.272-17.856-89.472-50.24-122.24-32.512-32.64-75.52-50.496-121.472-50.496l-.762-.002c-47.191 0-89.87 19.318-120.561 50.477zM0 896h896V768.832H0zm0-257.024h318.016V512.064H0zm0-512.704h318.016V1.024H0zM0 382.72h254.976V254.976H0z" horiz-adv-x="1024"/><glyph glyph-name="tags" unicode="" d="M191.78 691.13c-24.375 0-47.24-9.442-64.385-26.585-17.145-17.145-26.586-40.01-26.586-64.385s9.443-47.24 26.586-64.384c17.144-17.144 40.01-26.586 64.384-26.586s47.241 9.442 64.385 26.586c17.144 17.144 26.586 40.01 26.586 64.384s-9.442 47.24-26.586 64.385c-17.145 17.144-40.01 26.585-64.385 26.585zm0-130.775c-22.321 0-39.805 17.484-39.805 39.805 0 22.32 17.484 39.805 39.804 39.805 22.322 0 39.806-17.485 39.806-39.805 0-22.321-17.484-39.805-39.806-39.805zm806.159-190.247-.184.191-365.41 364.962c-30.801 30.758-86.661 53.952-129.936 53.952v-51.165c29.67 0 72.617-17.856 93.781-38.99l365.011-364.566c7.387-7.779 11.62-18.18 11.62-28.578 0-10.316-4.27-20.745-11.422-27.897L676.563-14.469l36.655-35.696 284.49 292.132c16.703 16.773 26.28 40.069 26.28 63.946 0 23.562-9.496 46.959-26.05 64.195zm-170.115-64.194c0 23.56-9.495 46.958-26.049 64.193l-.184.19-365.41 364.964c-30.8 30.758-86.661 53.952-129.936 53.952H93.697c-24.122 0-46.918-9.51-64.188-26.782-17.27-17.27-26.782-40.067-26.782-64.189v-212.51c0-43.613 23.23-99.28 54.052-129.554L421.927-9.416c16.714-16.821 40.076-26.467 64.097-26.467 23.614 0 47.022 9.504 64.222 26.075l.18.174 251.003 251.49c16.774 16.78 26.395 40.128 26.395 64.058zm-62.589-27.896L514.593 26.89c-7.632-7.272-18.294-11.609-28.568-11.609-10.339 0-20.731 4.25-27.85 11.412L92.883 392.433l-.195.192c-21.028 20.61-38.794 63.246-38.794 93.105v212.51c0 21.576 18.228 39.806 39.804 39.806h212.548c29.67 0 72.617-17.856 93.781-38.99L765.038 334.49c7.387-7.779 11.62-18.18 11.62-28.578 0-10.314-4.27-20.743-11.423-27.894z" horiz-adv-x="1024"/><glyph glyph-name="iconsf-copy" unicode="" d="M247.748 207.554c25.626-23.21 62.458-44.043 97.697-44.043 25.626 0 54.448 11.213 54.448 41.646 0 33.627-39.24 39.232-83.28 58.457-49.647 21.625-91.291 48.043-91.291 111.312 0 82.479 66.466 117.709 148.944 117.709 44.844 0 92.895-10.415 127.322-32.832v-9.605l-32.029-63.269c-22.418 16.814-52.853 28.022-86.487 28.022-29.626 0-48.043-12.003-48.043-35.229 0-30.422 35.238-36.834 79.279-53.648 60.855-23.227 97.688-48.851 97.688-113.708 0-84.877-66.459-121.724-154.542-121.724-56.06 0-100.903 15.222-143.34 47.247v9.605l33.636 60.061zM609.644 91.465c0 8.122 1.61 229.148 2.416 305.529-21.91-.807-44.692-.807-51.168-.807l.807 82.07c6.507 0 28.452 0 49.555-.807 0 3.255-1.61 70.696-1.61 73.129 0 91.815 53.618 125.955 123.504 125.955 30.064 0 60.93-4.883 91.834-17.883v-12.18l-23.587-65.007c-12.987 7.315-27.615 11.374-40.633 11.374-22.748 0-37.377-11.374-37.377-54.439 0-14.628.837-57.693.837-60.949 24.361.807 70.696.807 77.172.807l-.807-82.07c-6.509 0-52.812 0-77.204.807 1.642-76.38 1.642-297.407 1.642-305.529H609.638z" horiz-adv-x="1024"/><glyph glyph-name="ziyuan" unicode="" d="M516.009-128h-8.49C227.274-127.463.267 99.709 0 379.966v8.515C.536 668.561 227.44 895.465 507.469 896h8.54c280.282-.268 507.455-227.275 507.991-507.468v-8.541C1023.732 99.543 796.457-127.732 516.035-128zm-8.49 958.438C263.541 830.17 65.83 632.459 65.562 388.507v-8.516C65.83 136.013 263.541-61.698 507.493-61.966h8.516c243.978.268 441.689 197.979 441.957 441.931v8.516c-.268 243.978-197.979 441.689-441.931 441.957zM289.135 276.695c-18.034.261-32.553 14.942-32.553 33.014 0 9.003 3.603 17.164 9.446 23.12l225.926 225.926c5.998 6.118 14.348 9.91 23.584 9.91 9.236 0 17.586-3.792 23.578-9.905l220.276-220.276c6.036-6.036 9.769-14.374 9.769-23.584 0-18.42-14.932-33.352-33.352-33.352-9.21 0-17.548 3.733-23.584 9.769L515.066 488.948 312.247 286.129a32.906 32.906 0 0 0-23.107-9.433h-.005z" horiz-adv-x="1024"/><glyph glyph-name="catalog" unicode="" d="M63.819 126.609h121.375V6.65H63.819v119.959zm246.322 0h650.322V6.65H310.141v119.959zm0 638.773h650.322V645.454H310.141v119.928zm0-329.607h650.322V315.847H310.141v119.928zm-246.322 0h121.375V315.847H63.819v119.928zm0 329.607h121.375V645.454H63.819v119.928z" horiz-adv-x="1024"/><glyph glyph-name="cebianlantubiao-" unicode="" d="M512 896C230.4 896 0 665.6 0 384s230.4-512 512-512 512 230.4 512 512-230.4 512-512 512zm0-938.667c-234.667 0-426.667 192-426.667 426.667s192 426.667 426.667 426.667 426.667-192 426.667-426.667S746.667-42.667 512-42.667zm81.067 652.8c-21.334 21.334-51.2 34.134-81.067 34.134s-59.733-12.8-81.067-34.134l-179.2-179.2c-17.066-17.066-17.066-42.666 0-59.733s42.667-17.067 59.734 0l157.866 157.867v-396.8c0-25.6 17.067-42.667 42.667-42.667s42.667 17.067 42.667 42.667v396.8l153.6-153.6c8.533-8.534 21.333-12.8 29.866-12.8s21.334 4.266 29.867 12.8c17.067 17.066 17.067 42.666 0 59.733L593.067 610.133z" horiz-adv-x="1024"/><glyph glyph-name="totop" unicode="" d="M107.209 146.301c-17.683 0-36.409 7.282-48.892 20.804-24.967 27.047-23.926 69.697 3.121 95.703L460.896 637.3c27.047 24.967 69.697 23.926 95.703-3.121 24.967-27.047 23.926-69.697-3.121-95.703L152.98 165.025c-13.523-12.483-29.126-18.725-45.771-18.726zm798.916 0c-16.644 0-33.288 6.242-45.771 17.683L460.896 538.476c-27.047 24.967-28.087 67.617-3.121 95.703 24.967 27.047 67.617 28.087 95.703 3.121l399.458-374.492c27.047-24.967 28.087-67.617 3.121-95.703-13.523-13.523-31.208-20.805-49.932-20.805z" horiz-adv-x="1024"/><glyph glyph-name="telegram1" unicode="" d="m679.424 149.138 84.005 395.996c7.424 34.852-12.581 48.567-35.438 40.009L234.277 394.862c-33.72-13.13-33.134-32-5.706-40.558l126.282-39.424 293.156 184.576c13.714 9.143 26.295 3.986 16.018-5.157L426.898 280.027l-9.143-130.304c13.13 0 18.871 5.706 25.71 12.581l61.696 59.429 128-94.282c23.442-13.129 40.01-6.29 46.3 21.724zM1024 384c0-282.843-229.157-512-512-512S0 101.157 0 384s229.157 512 512 512 512-229.157 512-512z" horiz-adv-x="1024"/><glyph glyph-name="instagram" unicode="" d="M851.429 81.143v370.286h-77.143q11.428-36 11.428-74.858 0-72-36.571-132.857t-99.429-96.285T512.571 112Q400 112 320 189.429T240 376.57q0 38.858 11.429 74.858h-80.572V81.143q0-14.857 10-24.857t24.857-10h610.857q14.286 0 24.572 10t10.286 24.857zM689.143 385.714q0 70.857-51.714 120.857t-124.858 50q-72.571 0-124.285-50T336.57 385.714t51.715-120.857 124.285-50q73.143 0 124.858 50t51.714 120.857zM851.429 591.43v94.285q0 16-11.429 27.715t-28 11.714h-99.429q-16.571 0-28-11.714t-11.428-27.715V591.43q0-16.572 11.428-28t28-11.429H812q16.571 0 28 11.429t11.429 28zm99.428 118.857V57.714q0-46.285-33.143-79.428t-79.428-33.143H185.714q-46.285 0-79.428 33.143T73.143 57.714v652.572q0 46.285 33.143 79.428t79.428 33.143h652.572q46.285 0 79.428-33.143t33.143-79.428z" horiz-adv-x="1024"/><glyph glyph-name="fangwenliang1" unicode="" d="M947.746 368.165c-.844-1.052-48.273-62.988-125.76-125.672-77.454-62.387-185.546-126.945-309.985-127.266-124.442.322-232.53 64.88-309.987 127.266-77.486 62.682-124.916 124.619-125.76 125.672L64 384.164l12.254 15.976c.844 1.053 48.274 62.989 125.76 125.675 77.456 62.382 185.73 126.635 310.172 126.958 124.44-.323 232.345-64.576 309.799-126.958 77.486-62.684 124.915-124.621 125.76-125.675L960 384.164l-12.254-15.999zM512.187 540.536c-86.531 0-156.68-70.106-156.68-156.586 0-86.482 70.149-156.591 156.68-156.591 86.532 0 156.679 70.109 156.679 156.591 0 86.48-70.147 156.586-156.679 156.586zm0-268.822c-61.861 0-112.009 50.25-112.009 112.236 0 61.983 50.148 112.233 112.009 112.233 61.862 0 112.01-50.25 112.01-112.233 0-61.986-50.15-112.236-112.01-112.236z" horiz-adv-x="1024"/><glyph glyph-name="CN_bilibiliB" unicode="" d="M419.5 586.696c-17.514 9.487-35.029 18.974-52.543 28.583l-87.209 47.435c-11.798 6.447-16.663 16.299-9.973 28.462 6.69 12.284 17.88 13.136 29.434 6.81 68.113-37.096 136.347-74.072 204.338-111.655 17.393-9.609 48.773-3.892 59.842 12.406a66632.417 66632.417 0 0 1 104.115 151.55c1.216 1.825 2.432 3.65 3.648 5.352 9.852 13.745 21.164 17.393 31.38 9.366 11.799-9.366 9.853-20.434 2.19-31.624a18582.62 18582.62 0 0 1-42.205-61.788c-19.461-28.583-38.922-57.166-60.694-88.911h245.084c22.867 0 26.394-3.649 26.515-26.515.244-156.78.365-313.44.609-470.22 0-22.38-4.014-26.272-26.88-26.394-5.96 0-12.042-.608-17.88.122-21.65 2.432-37.462.364-45.003-26.394-6.811-24.083-32.475-36.367-55.585-33.935-26.758 2.798-44.395 18.61-51.206 43.544-4.135 15.082-11.19 17.15-24.812 17.028-94.02-.608-187.918-.365-281.938-.122-10.825 0-17.15-.973-20.312-14.109C343.604 17.47 320.372-.41 294.709-.897c-26.637-.487-49.747 16.907-57.531 46.22-3.284 12.284-8.758 15.081-20.07 14.473-14.595-.851-29.312-.365-44.029-.121-16.055.364-23.11 6.932-23.11 22.623.122 159.334.365 318.791.73 478.247 0 16.542 6.69 22.015 25.056 22.015 75.532.122 151.064 0 226.474 0h15.812c.487 1.338.973 2.676 1.46 4.136zm417.555-490.29v450.517H188.648V96.407h648.407zm-520.94-37.948h-44.638c3.041-12.77 9.244-21.771 21.164-22.501 13.258-.973 19.582 8.879 23.474 22.501zm394.445.122c4.5-13.623 10.582-23.596 23.961-22.623 12.042.851 17.637 10.217 21.286 22.623H710.56zM513.4 127.422H252.746c-25.299 0-29.312 4.014-29.312 29.313.121 108.98.243 217.96.486 327.062 0 22.988 4.744 27.732 27.61 27.732h523.008c23.23 0 27.974-4.622 28.096-27.367.365-109.588.608-219.055.73-328.643 0-23.475-4.865-27.975-29.07-28.097H513.4zm250.678 38.557v306.628H262.234V165.98h501.843zM515.71 220.347c-6.69-4.743-12.893-10.095-19.948-13.865-23.23-12.285-46.34-11.19-67.747 3.77-23.596 16.542-34.057 40.746-31.989 68.964.487 6.082 11.677 15.69 18.123 15.934 6.325.243 14.352-8.515 18.974-15.204 3.65-5.352 2.068-13.866 4.622-20.312 4.865-12.285 13.866-23.961 27.367-21.042 9.973 2.067 18.974 12.163 26.393 20.434 3.65 4.135 3.041 12.284 4.014 18.609 1.703 12.041 8.636 19.339 20.434 19.096 10.703-.244 17.636-6.812 19.096-18.488.851-7.42 1.094-16.663 5.473-21.528 7.055-7.906 17.028-17.393 26.15-17.758 8.15-.244 18.123 9.73 24.57 17.514 4.257 5.109 4.013 14.231 5.351 21.65 2.19 11.798 8.88 18.975 21.042 18.123 12.042-.973 18.366-8.757 17.88-21.042-1.216-31.015-13.38-56.193-42.084-70.058-26.758-12.893-51.814-7.42-73.708 12.527-1.216.852-2.554 1.582-4.013 2.676zm214.068 116.035c.365-18.366-14.596-28.461-28.461-20.555-37.097 21.163-73.586 43.421-109.954 65.801-9.608 5.96-11.676 15.69-6.081 25.542 5.716 10.096 15.812 12.772 25.177 7.42 37.462-21.65 74.56-43.908 111.413-66.653 4.257-2.798 6.325-9.244 7.906-11.555zm-316.602 70.667c3.406-3.406 12.163-8.15 13.136-13.988 1.095-6.932-2.554-18.974-7.906-21.65-32.232-16.541-65.315-31.38-98.52-46.097-10.095-4.5-21.164-1.095-23.718 9.852-1.703 7.176 1.338 20.677 6.447 23.353 33.204 17.028 67.504 31.745 101.439 47.192 1.46.608 3.162.486 9.122 1.338z" horiz-adv-x="1024"/><glyph glyph-name="CN_VEX" unicode="" d="M695.998 896H43.486C19.466 896 0 876.72 0 852.943V555.028h611.913c12.727 0 24.888-5.189 33.636-14.336l142.014-148.637a8.552 8.552 0 0 0 .03-11.81l-142.024-150.07c-8.748-9.245-18.364-16.842-31.169-16.842H0V-84.943C0-108.72 19.466-128 43.486-128H695.87c14.375 0 28.156 5.656 38.317 15.72l440.77 436.761a86.309 86.309 0 0 1-.264 123.105l-440.535 432.85A54.477 54.477 0 0 1 696 896z" horiz-adv-x="1200"/><glyph glyph-name="flashlight_fill" unicode="" d="M830.016 441.76a32 32 0 0 1-26.112 20.736L566.688 491.84l59.136 236.384a31.968 31.968 0 0 1-54.688 29.312L200.32 350.72a32 32 0 0 1 19.712-53.312l235.648-29.28-60.896-236.32a32.032 32.032 0 0 1 54.56-29.664l374.208 406.944a32 32 0 0 1 6.464 32.672" horiz-adv-x="1024"/><glyph glyph-name="folder_icon" unicode="" d="M928.67 689.56H534.14c-10.141.001-19.647 2.719-27.831 7.465L350.54 786c-15.851 9.208-34.88 14.644-55.179 14.65H95.33c-45.998-.051-83.273-37.323-83.33-83.315V50.67c.051-46.001 37.329-83.279 83.325-83.33H928.67c46.001.051 83.279 37.329 83.33 83.325V606.22c-.046 46.006-37.325 83.289-83.325 83.34zm27.78-638.89c-.011-15.338-12.442-27.769-27.779-27.78H95.33c-15.338.011-27.769 12.442-27.78 27.779V467.33h888.89zM67.56 522.89v194.44c.011 15.338 12.442 27.769 27.779 27.78h200.094c10.142 0 19.649-2.717 27.834-7.463L479 648.65c15.853-9.209 34.885-14.646 55.186-14.65H928.67c15.338-.011 27.769-12.442 27.78-27.779V522.89z" horiz-adv-x="1024"/><glyph glyph-name="flash" unicode="" d="m746.752 382.592-180.95 104.875 91.222 218.922A42.795 42.795 0 0 1 618.88 768a42.837 42.837 0 0 1-26.539-9.13l-2.986-2.56-320-302.934a42.752 42.752 0 0 1 7.893-67.925L458.24 280.49 365.952 59.05a42.624 42.624 0 0 1 68.736-47.36l320 303.018a42.752 42.752 0 0 1-7.936 67.883z" horiz-adv-x="1024"/><glyph glyph-name="link2" unicode="" d="M513 480h-1 1zm224 96h-97s52-34 63.2-96H737c35.2 0 63-27.8 63-63v-64c0-35.2-27.8-65-63-65H513c-35.2 0-65 29.8-65 65v63h-96v-63c0-23 5-45 13.8-65 25.2-56.4 81.8-96 147.2-96h224c88.4 0 159 72.6 159 161v64c0 88.4-70.6 159-159 159zm-77.8-96C635 536.6 579 576 513 576H289c-88.4 0-161-70.6-161-159v-64c0-88.4 72.6-161 161-161h95s-51.6 34-64.2 96H289c-35.2 0-65 29.8-65 65v64c0 35.2 29.8 63 65 63h224c35.2 0 63-27.8 63-63v-65h96v65c0 22.4-4.6 43.8-12.8 63z" horiz-adv-x="1024"/><glyph glyph-name="rss" unicode="" d="M819.2-128c0 449.408-369.792 819.2-819.2 819.2V896c561.728 0 1024-462.272 1024-1024H819.2zM140.416 152.96c77.44 0 140.48-63.04 140.48-140.544 0-77.44-63.36-140.416-140.8-140.416A140.288 140.288 0 0 0 0 12.416c0 77.44 62.912 140.48 140.416 140.48zM678.784-128h-199.04c0 263.232-216.512 479.808-479.744 479.808v199.04c372.352 0 678.784-306.56 678.784-678.848z" horiz-adv-x="1024"/><glyph glyph-name="segmentfault" unicode="" d="M169.916 155.584c33.173-30.047 80.855-57.015 126.473-57.015 33.172 0 70.485 14.515 70.485 53.911 0 43.533-50.797 50.788-107.81 75.675-64.269 27.994-118.179 62.193-118.179 144.096 0 106.772 86.044 152.379 192.816 152.379 58.052 0 120.256-13.483 164.823-42.502v-12.434l-41.465-81.905c-29.02 21.766-68.42 36.277-111.96 36.277-38.353 0-62.194-15.54-62.194-45.605 0-39.381 45.617-47.683 102.63-69.45 78.78-30.068 126.461-63.24 126.461-147.198 0-109.877-86.034-157.577-200.061-157.577-72.57 0-130.623 19.707-185.56 61.164v12.433l43.541 77.75zM638.404 5.302c0 10.514 2.085 296.641 3.129 395.52-28.364-1.045-57.855-1.045-66.239-1.045l1.044 106.242c8.425 0 36.832 0 64.152-1.044 0 4.213-2.085 91.519-2.085 94.668 0 118.858 69.41 163.054 159.883 163.054 38.918 0 78.877-6.32 118.881-23.151v-15.767l-30.533-84.155c-16.812 9.47-35.75 14.724-52.6 14.724-29.448 0-48.386-14.724-48.386-70.473 0-18.936 1.084-74.686 1.084-78.9 31.536 1.044 91.518 1.044 99.903 1.044l-1.044-106.242c-8.427 0-68.367 0-99.943 1.044 2.126-98.878 2.126-385.005 2.126-395.519H638.404z" horiz-adv-x="1024"/><glyph glyph-name="share3" unicode="" d="M436.73-54.859a36.717 36.717 0 0 0-36.572 36.644v200.773c0 24.576 3.95 58.513 23.698 81.04l418.076 488.585L114.468 361.9l231.712-74.824a36.79 36.79 0 0 0-22.527-69.85L38.913 309.24C5.268 319.699.733 344.859.148 352.173c-.512 7.314 0 32.621 31.305 48.42L946.671 891.59a36.424 36.424 0 0 0 32.547 1.097 39.057 39.057 0 0 0 22.674-4.242c8.997-4.608 28.745-19.455 19.968-56.1L878.283 97.86c-.146-.512-.146-1.097-.365-1.609a72.337 72.337 0 0 0-34.157-46.225 60.927 60.927 0 0 0-49.224-5.12L509.285 134.14a36.79 36.79 0 0 0 21.943 70.069l276.693-86.746L930.068 742.31 479.078 215.69c-1.829-2.34-5.998-14.043-5.998-33.133V-18.215a36.424 36.424 0 0 0-36.424-36.644z" horiz-adv-x="1024"/><glyph glyph-name="number_" unicode="" d="M590.438 461.62A230.4 230.4 0 0 0 716.8 256v-51.2a230.4 230.4 0 1 0-460.8 0V256a230.4 230.4 0 0 0 126.362 205.62A217.6 217.6 0 0 0 268.8 652.8v25.6a217.6 217.6 0 1 0 435.2 0v-25.6a217.6 217.6 0 0 0-113.562-191.18zM486.4 844.8A166.4 166.4 0 0 1 320 678.4v-25.6a166.4 166.4 0 1 1 332.8 0v25.6a166.4 166.4 0 0 1-166.4 166.4zm0-409.6A179.2 179.2 0 0 1 307.2 256v-51.2a179.2 179.2 0 0 1 358.4 0V256a179.2 179.2 0 0 1-179.2 179.2z" horiz-adv-x="1024"/><glyph glyph-name="tools" unicode="" d="M732.16 445.952h-12.288v72.192c0 37.888-31.744 69.12-70.656 69.12H576c1.024 7.168 1.024 14.848 1.024 22.016 0 75.776-62.976 137.728-140.288 137.728S296.448 685.056 296.448 609.28c0-7.168 0-14.848 1.024-22.016h-73.216c-38.912 0-70.656-31.232-70.656-69.12v-102.4c0-9.216 3.584-15.872 10.752-21.504 7.168-5.632 14.848-7.168 23.552-5.632 7.68 1.536 16.384 3.072 22.528 3.072 46.08 0 84.992-38.4 84.992-83.456 0-46.08-37.888-83.456-84.992-83.456-6.656 0-14.848 1.536-22.528 3.072-7.68 2.048-16.896-.512-23.552-5.632-7.168-5.12-10.752-12.288-10.752-21.504v-102.4c0-37.888 31.744-69.12 70.656-69.12H650.24c19.456 0 38.4 8.192 51.712 22.016 12.288 13.312 18.432 29.696 17.92 47.104v72.192h12.288c77.312 0 140.288 61.952 140.288 137.728 0 75.776-62.976 137.728-140.288 137.728zm-66.048-239.616V100.352c0-8.192-7.168-15.36-15.872-15.36H224.768c-8.704 0-15.872 6.656-15.872 15.36v70.656c.512 0 1.536 0 2.048.512 77.312.512 139.776 61.952 139.776 137.728 0 37.376-14.848 72.704-41.984 98.816C281.6 434.176 245.76 448 208.384 446.976v70.656c0 8.192 7.168 15.36 15.872 15.36h110.08c8.704 0 17.92 4.608 23.552 12.288 4.608 6.656 5.632 15.36 2.048 25.088-5.12 11.264-8.192 24.064-8.192 36.352 0 46.08 37.888 83.456 84.992 83.456 46.08 0 84.992-38.4 84.992-83.456 0-10.752-1.024-23.04-7.68-35.84-4.608-7.68-3.584-18.432 1.536-25.6 5.12-6.144 13.824-12.288 23.552-12.288H650.24c8.704 0 15.872-6.656 15.872-15.36v-107.52c0-9.216 3.584-15.872 10.752-21.504 7.68-5.632 16.896-6.656 25.6-3.072 8.192 4.096 17.408 6.144 28.672 6.144 46.08 0 84.992-38.4 84.992-83.456 0-46.08-37.888-83.456-84.992-83.456-8.192 0-17.408 3.072-26.112 5.632l-3.072 1.024c-10.24 2.56-18.432 1.536-25.088-3.584-6.656-3.072-10.752-11.264-10.752-21.504z" horiz-adv-x="1024"/><glyph glyph-name="sharearrow" unicode="" d="M977.6 796.8c-3.2 2.4-7.2 2.4-10.4.8l-937.6-480C26.4 316 24 312 24 308s3.2-7.2 6.4-8.8l313.6-100c3.2-.8 7.2 0 9.6 2.4L788 592.8 441.6 182.4c-2.4-2.4-3.2-5.6-1.6-8.8.8-3.2 3.2-5.6 6.4-6.4l348-106.4c.8 0 1.6-.8 2.4-.8 1.6 0 3.2.8 4.8 1.6 2.4 1.6 4 3.2 4.8 6.4l174.4 718.4c.8 4 0 8-3.2 10.4zM548 92l-96 29.6c-3.2.8-6.4 0-8.8-1.6-2.4-1.6-4-4.8-4-8V-69.6c0-4 3.2-8 7.2-9.6h2.4c3.2 0 6.4 1.6 8 4.8l96 152c1.6 2.4 1.6 5.6.8 8.8 0 2.4-2.4 4.8-5.6 5.6z" horiz-adv-x="1024"/><glyph glyph-name="juejin" unicode="" d="m92.224 362.527-60.757-49.71L513.381-68.295l479.152 381.112-60.757 49.71L512 32.507 92.224 362.526zM281.4 515.801l-57.996-49.71L512 236.87l289.977 230.6-63.52 46.949L512 334.91 281.4 515.8zm229.22 183.651-96.66-75.946L512 546.18l93.897 75.946-95.278 77.327z" horiz-adv-x="1024"/><glyph glyph-name="steam" unicode="" d="M1008 384c0-274-222.4-496-496.8-496C283.6-112 92 40.6 33.2 248.8l190.4-78.6C236.4 106 293.4 57.4 361.4 57.4c78.4 0 143.8 64.8 140.4 147l169 120.4c104.2-2.6 191.6 81.8 191.6 187 0 103.2-84 187-187.4 187s-187.4-84-187.4-187v-2.4L369.2 338c-31 1.8-61.4-6.8-87-24.2L16 423.8C36.4 679.2 250.2 880 511.2 880c274.4 0 496.8-222 496.8-496zM327.4 127.4l-61 25.2a105.58 105.58 0 0 1 54.4-51.6c53.8-22.4 115.6 3.2 138 56.8 10.8 26 11 54.6.2 80.6-10.8 26-31 46.4-57 57.2-25.8 10.8-53.4 10.4-77.8 1.2l63-26c39.6-16.4 58.4-61.8 41.8-101.4-16.6-39.8-62-58.4-101.6-42zM675 387.2c-68.8 0-124.8 56-124.8 124.6s56 124.6 124.8 124.6 124.8-56 124.8-124.6S744 387.2 675 387.2zm.2 31.2c51.8 0 93.8 42 93.8 93.6 0 51.8-42 93.6-93.8 93.6s-93.8-42-93.8-93.6c.2-51.6 42.2-93.6 93.8-93.6z" horiz-adv-x="1024"/></font>
</defs>
</svg>
